<svg width="25" height="25" viewBox="0 0 25 25" fill="none" xmlns="http://www.w3.org/2000/svg">
<path d="M12.6493 23.25C6.71929 23.25 1.89929 18.43 1.89929 12.5C1.89929 10.14 2.64929 7.9 4.06929 6.02C4.31929 5.69 4.78929 5.63 5.11929 5.88C5.44929 6.13 5.51929 6.6 5.26929 6.93C4.05125 8.53096 3.3941 10.4884 3.39929 12.5C3.39929 17.6 7.54929 21.75 12.6493 21.75C17.7493 21.75 21.8993 17.6 21.8993 12.5C21.8993 7.4 17.7493 3.25 12.6493 3.25C12.2393 3.25 11.8993 2.91 11.8993 2.5C11.8993 2.09 12.2393 1.75 12.6493 1.75C18.5793 1.75 23.3993 6.57 23.3993 12.5C23.3993 18.43 18.5793 23.25 12.6493 23.25Z" fill="#ABB7C2"/>
<path d="M12.6493 20.25C8.37929 20.25 4.89929 16.77 4.89929 12.5C4.89929 12.09 5.23929 11.75 5.64929 11.75C6.05929 11.75 6.39929 12.09 6.39929 12.5C6.39929 15.95 9.19929 18.75 12.6493 18.75C16.0993 18.75 18.8993 15.95 18.8993 12.5C18.8993 9.05 16.0993 6.25 12.6493 6.25C12.2393 6.25 11.8993 5.91 11.8993 5.5C11.8993 5.09 12.2393 4.75 12.6493 4.75C16.9193 4.75 20.3993 8.23 20.3993 12.5C20.3993 16.77 16.9193 20.25 12.6493 20.25Z" fill="#ABB7C2"/>
<path d="M12.6493 17.25C12.2393 17.25 11.8993 16.91 11.8993 16.5C11.8993 16.09 12.2393 15.75 12.6493 15.75C14.4393 15.75 15.8993 14.29 15.8993 12.5C15.8993 10.71 14.4393 9.25 12.6493 9.25C12.2393 9.25 11.8993 8.91 11.8993 8.5C11.8993 8.09 12.2393 7.75 12.6493 7.75C15.2693 7.75 17.3993 9.88 17.3993 12.5C17.3993 15.12 15.2693 17.25 12.6493 17.25Z" fill="#ABB7C2"/>
</svg>
