<svg width="25" height="25" viewBox="0 0 25 25" fill="none" xmlns="http://www.w3.org/2000/svg">
<path fill-rule="evenodd" clip-rule="evenodd" d="M16.4423 1.5C16.6412 1.5 16.832 1.57902 16.9726 1.71967C17.1133 1.86032 17.1923 2.05109 17.1923 2.25L17.1933 3.098C18.6533 3.198 19.8663 3.698 20.7243 4.558C21.6613 5.499 22.1543 6.852 22.1493 8.475V17.598C22.1493 20.93 20.0333 23 16.6283 23H8.17029C4.76529 23 2.64929 20.901 2.64929 17.522V8.473C2.64929 5.33 4.53629 3.313 7.61429 3.098V2.25C7.61429 2.05109 7.69331 1.86032 7.83396 1.71967C7.97461 1.57902 8.16538 1.5 8.36429 1.5C8.5632 1.5 8.75397 1.57902 8.89462 1.71967C9.03527 1.86032 9.11429 2.05109 9.11429 2.25V3.079H15.6923V2.25C15.6923 2.05109 15.7713 1.86032 15.912 1.71967C16.0526 1.57902 16.2434 1.5 16.4423 1.5V1.5ZM20.6493 10.404H4.14929V17.522C4.14929 20.088 5.57729 21.5 8.17029 21.5H16.6283C19.2213 21.5 20.6493 20.114 20.6493 17.598V10.404ZM16.8503 16.696C17.0492 16.696 17.24 16.775 17.3806 16.9157C17.5213 17.0563 17.6003 17.2471 17.6003 17.446C17.6003 17.6449 17.5213 17.8357 17.3806 17.9763C17.24 18.117 17.0492 18.196 16.8503 18.196C16.651 18.196 16.4598 18.1171 16.3185 17.9766C16.1773 17.836 16.0973 17.6453 16.0963 17.446C16.0963 17.032 16.4273 16.696 16.8413 16.696H16.8513H16.8503ZM12.4133 16.696C12.6122 16.696 12.803 16.775 12.9436 16.9157C13.0843 17.0563 13.1633 17.2471 13.1633 17.446C13.1633 17.6449 13.0843 17.8357 12.9436 17.9763C12.803 18.117 12.6122 18.196 12.4133 18.196C12.214 18.196 12.0228 18.1171 11.8815 17.9766C11.7403 17.836 11.6603 17.6453 11.6593 17.446C11.6593 17.032 11.9893 16.696 12.4043 16.696H12.4133ZM7.96629 16.696C8.1652 16.696 8.35597 16.775 8.49662 16.9157C8.63727 17.0563 8.71629 17.2471 8.71629 17.446C8.71629 17.6449 8.63727 17.8357 8.49662 17.9763C8.35597 18.117 8.1652 18.196 7.96629 18.196C7.76692 18.196 7.57563 18.1171 7.43419 17.9766C7.29274 17.8361 7.21261 17.6454 7.21129 17.446C7.21129 17.032 7.54329 16.696 7.95729 16.696H7.96629ZM16.8493 12.81C17.0482 12.81 17.239 12.889 17.3796 13.0297C17.5203 13.1703 17.5993 13.3611 17.5993 13.56C17.5993 13.7589 17.5203 13.9497 17.3796 14.0903C17.239 14.231 17.0482 14.31 16.8493 14.31C16.65 14.31 16.4588 14.2311 16.3175 14.0906C16.1763 13.95 16.0963 13.7593 16.0953 13.56C16.0953 13.146 16.4263 12.81 16.8403 12.81H16.8503H16.8493ZM12.4123 12.81C12.6112 12.81 12.802 12.889 12.9426 13.0297C13.0833 13.1703 13.1623 13.3611 13.1623 13.56C13.1623 13.7589 13.0833 13.9497 12.9426 14.0903C12.802 14.231 12.6112 14.31 12.4123 14.31C12.213 14.31 12.0218 14.2311 11.8805 14.0906C11.7393 13.95 11.6593 13.7593 11.6583 13.56C11.6583 13.146 11.9883 12.81 12.4033 12.81H12.4123ZM7.96529 12.81C8.1642 12.81 8.35497 12.889 8.49562 13.0297C8.63627 13.1703 8.71529 13.3611 8.71529 13.56C8.71529 13.7589 8.63627 13.9497 8.49562 14.0903C8.35497 14.231 8.1642 14.31 7.96529 14.31C7.76592 14.31 7.57463 14.2311 7.43319 14.0906C7.29174 13.9501 7.21161 13.7594 7.21029 13.56C7.21029 13.146 7.54229 12.81 7.95629 12.81H7.96529ZM15.6913 4.579H9.11429V5.541C9.11429 5.73991 9.03527 5.93068 8.89462 6.07133C8.75397 6.21198 8.5632 6.291 8.36429 6.291C8.16538 6.291 7.97461 6.21198 7.83396 6.07133C7.69331 5.93068 7.61429 5.73991 7.61429 5.541V4.601C5.37429 4.79 4.14929 6.149 4.14929 8.474V8.905H20.6493V8.475C20.6533 7.239 20.3213 6.279 19.6623 5.619C19.0843 5.039 18.2383 4.692 17.1933 4.603V5.542C17.1933 5.74091 17.1143 5.93168 16.9736 6.07233C16.833 6.21298 16.6422 6.292 16.4433 6.292C16.2444 6.292 16.0536 6.21298 15.913 6.07233C15.7723 5.93168 15.6933 5.74091 15.6933 5.542L15.6923 4.58L15.6913 4.579Z" fill="#ABB7C2"/>
</svg>
