<svg width="25" height="25" viewBox="0 0 25 25" fill="none" xmlns="http://www.w3.org/2000/svg">
<path fill-rule="evenodd" clip-rule="evenodd" d="M10.9733 20.606C11.4913 21.183 12.1563 21.5 12.8463 21.5H12.8473C13.5403 21.5 14.2083 21.183 14.7273 20.605C14.8604 20.4571 15.0469 20.3682 15.2456 20.3578C15.4443 20.3474 15.6389 20.4164 15.7868 20.5495C15.9347 20.6826 16.0236 20.8691 16.034 21.0678C16.0444 21.2664 15.9754 21.4611 15.8423 21.609C15.0343 22.506 13.9723 23 12.8473 23H12.8453C11.7253 22.999 10.6633 22.505 9.85831 21.608C9.79251 21.5348 9.74179 21.4493 9.70902 21.3565C9.67625 21.2637 9.66209 21.1653 9.66733 21.067C9.67258 20.9688 9.69713 20.8725 9.7396 20.7837C9.78206 20.6949 9.84159 20.6153 9.91481 20.5495C9.98802 20.4837 10.0735 20.433 10.1663 20.4002C10.2591 20.3674 10.3575 20.3533 10.4558 20.3585C10.554 20.3638 10.6503 20.3883 10.7391 20.4308C10.8279 20.4733 10.9075 20.5328 10.9733 20.606ZM12.8963 1.5C17.3413 1.5 20.3273 4.962 20.3273 8.195C20.3273 9.858 20.7503 10.563 21.1993 11.311C21.6433 12.049 22.1463 12.887 22.1463 14.471C21.7973 18.518 17.5723 18.848 12.8963 18.848C8.2203 18.848 3.99431 18.518 3.64931 14.535C3.64631 12.887 4.14931 12.049 4.59331 11.311L4.75031 11.047C5.13631 10.384 5.46531 9.662 5.46531 8.195C5.46531 4.962 8.4513 1.5 12.8963 1.5ZM12.8963 3C9.40131 3 6.96631 5.738 6.96631 8.195C6.96631 10.274 6.38831 11.235 5.87831 12.083C5.46931 12.764 5.14631 13.302 5.14631 14.471C5.31331 16.357 6.55831 17.348 12.8963 17.348C19.1993 17.348 20.4833 16.313 20.6493 14.406C20.6463 13.302 20.3233 12.764 19.9143 12.083C19.4043 11.235 18.8273 10.274 18.8273 8.195C18.8273 5.738 16.3913 3 12.8973 3H12.8963Z" fill="#ABB7C2"/>
</svg>
