<svg width="25" height="25" viewBox="0 0 25 25" fill="none" xmlns="http://www.w3.org/2000/svg">
<path d="M12.6493 23.25C12.4093 23.25 12.1693 23.22 11.9393 23.15C6.74926 21.72 2.98926 16.87 2.98926 11.61V7.22C2.98926 6.1 3.79926 4.89 4.83926 4.46L10.4093 2.18C11.8443 1.5899 13.4542 1.5899 14.8893 2.18L20.4593 4.46C21.4993 4.89 22.3093 6.1 22.3093 7.22V11.61C22.3093 16.86 18.5393 21.71 13.3593 23.15C13.1293 23.22 12.8893 23.25 12.6493 23.25ZM12.6493 3.25C12.0764 3.25024 11.5091 3.36234 10.9793 3.58L5.40926 5.86C4.92926 6.06 4.48926 6.71 4.48926 7.23V11.62C4.48926 16.21 7.78926 20.45 12.3393 21.71C12.5393 21.77 12.7593 21.77 12.9593 21.71C17.5093 20.45 20.8093 16.21 20.8093 11.62V7.23C20.8093 6.71 20.3693 6.06 19.8893 5.86L14.3193 3.58C13.7894 3.36234 13.2221 3.25024 12.6493 3.25Z" fill="#ABB7C2"/>
<path d="M12.6493 13.75C11.1293 13.75 9.89929 12.52 9.89929 11C9.89929 9.48 11.1293 8.25 12.6493 8.25C14.1693 8.25 15.3993 9.48 15.3993 11C15.3993 12.52 14.1693 13.75 12.6493 13.75ZM12.6493 9.75C12.3178 9.75 11.9998 9.8817 11.7654 10.1161C11.531 10.3505 11.3993 10.6685 11.3993 11C11.3993 11.3315 11.531 11.6495 11.7654 11.8839C11.9998 12.1183 12.3178 12.25 12.6493 12.25C12.9808 12.25 13.2988 12.1183 13.5332 11.8839C13.7676 11.6495 13.8993 11.3315 13.8993 11C13.8993 10.6685 13.7676 10.3505 13.5332 10.1161C13.2988 9.8817 12.9808 9.75 12.6493 9.75Z" fill="#ABB7C2"/>
<path d="M12.6493 16.75C12.2393 16.75 11.8993 16.41 11.8993 16V13C11.8993 12.59 12.2393 12.25 12.6493 12.25C13.0593 12.25 13.3993 12.59 13.3993 13V16C13.3993 16.41 13.0593 16.75 12.6493 16.75Z" fill="#ABB7C2"/>
</svg>
