<svg width="1100" height="181" viewBox="0 0 1100 181" fill="none" xmlns="http://www.w3.org/2000/svg">
<g clip-path="url(#clip0_61_500)">
<rect width="1100" height="181" rx="20" fill="#1A237E"/>
<path d="M983 45C983 45 985.207 65.5997 993.804 74.1964C1002.4 82.793 1023 85 1023 85C1023 85 1002.4 87.207 993.804 95.8036C985.207 104.4 983 125 983 125C983 125 980.793 104.4 972.196 95.8036C963.6 87.207 943 85 943 85C943 85 963.6 82.793 972.196 74.1964C980.793 65.5997 983 45 983 45Z" fill="white" fill-opacity="0.25"/>
<path d="M1053 93C1053 93 1055.21 113.6 1063.8 122.196C1072.4 130.793 1093 133 1093 133C1093 133 1072.4 135.207 1063.8 143.804C1055.21 152.4 1053 173 1053 173C1053 173 1050.79 152.4 1042.2 143.804C1033.6 135.207 1013 133 1013 133C1013 133 1033.6 130.793 1042.2 122.196C1050.79 113.6 1053 93 1053 93Z" fill="white" fill-opacity="0.1"/>
<path d="M912 122C912 122 914.207 152.385 922.804 165.065C931.4 177.745 952 181 952 181C952 181 931.4 184.255 922.804 196.935C914.207 209.615 912 240 912 240C912 240 909.793 209.615 901.196 196.935C892.6 184.255 872 181 872 181C872 181 892.6 177.745 901.196 165.065C909.793 152.385 912 122 912 122Z" fill="white" fill-opacity="0.1"/>
<path d="M1043.5 -59C1043.5 -59 1045.18 -28.6154 1051.74 -15.9354C1058.29 -3.25534 1074 -3.8147e-06 1074 -3.8147e-06C1074 -3.8147e-06 1058.29 3.25534 1051.74 15.9354C1045.18 28.6154 1043.5 59 1043.5 59C1043.5 59 1041.82 28.6154 1035.26 15.9354C1028.71 3.25534 1013 -3.8147e-06 1013 -3.8147e-06C1013 -3.8147e-06 1028.71 -3.25534 1035.26 -15.9354C1041.82 -28.6154 1043.5 -59 1043.5 -59Z" fill="white" fill-opacity="0.1"/>
<path d="M912.5 20C912.5 20 914.183 35.4498 920.738 41.8973C927.293 48.3447 943 50 943 50C943 50 927.293 51.6553 920.738 58.1027C914.183 64.5502 912.5 80 912.5 80C912.5 80 910.817 64.5502 904.262 58.1027C897.707 51.6553 882 50 882 50C882 50 897.707 48.3447 904.262 41.8973C910.817 35.4498 912.5 20 912.5 20Z" fill="white" fill-opacity="0.1"/>
</g>
<defs>
<clipPath id="clip0_61_500">
<rect width="1100" height="181" rx="20" fill="white"/>
</clipPath>
</defs>
</svg>
