<svg width="25" height="24" viewBox="0 0 25 24" fill="none" xmlns="http://www.w3.org/2000/svg">
<path d="M7.88941 2H5.98941C3.79941 2 2.64941 3.15 2.64941 5.33V7.23C2.64941 9.41 3.79941 10.56 5.97941 10.56H7.87941C10.0594 10.56 11.2094 9.41 11.2094 7.23V5.33C11.2194 3.15 10.0694 2 7.88941 2Z" fill="#ABB7C2"/>
<path opacity="0.6" d="M19.3194 2H17.4194C15.2394 2 14.0894 3.15 14.0894 5.33V7.23C14.0894 9.41 15.2394 10.56 17.4194 10.56H19.3194C21.4994 10.56 22.6494 9.41 22.6494 7.23V5.33C22.6494 3.15 21.4994 2 19.3194 2Z" fill="#ABB7C2"/>
<path d="M19.3194 13.43H17.4194C15.2394 13.43 14.0894 14.58 14.0894 16.76V18.66C14.0894 20.84 15.2394 21.99 17.4194 21.99H19.3194C21.4994 21.99 22.6494 20.84 22.6494 18.66V16.76C22.6494 14.58 21.4994 13.43 19.3194 13.43Z" fill="#ABB7C2"/>
<path opacity="0.6" d="M7.88941 13.43H5.98941C3.79941 13.43 2.64941 14.58 2.64941 16.76V18.66C2.64941 20.85 3.79941 22 5.97941 22H7.87941C10.0594 22 11.2094 20.85 11.2094 18.67V16.77C11.2194 14.58 10.0694 13.43 7.88941 13.43Z" fill="#ABB7C2"/>
</svg>
