<svg width="25" height="25" viewBox="0 0 25 25" fill="none" xmlns="http://www.w3.org/2000/svg">
<path fill-rule="evenodd" clip-rule="evenodd" d="M15.5463 3.342C15.7452 3.342 15.936 3.42102 16.0766 3.56167C16.2173 3.70232 16.2963 3.89309 16.2963 4.092C16.2963 4.29091 16.2173 4.48168 16.0766 4.62233C15.936 4.76298 15.7452 4.842 15.5463 4.842H8.27829C5.77029 4.842 4.14829 6.566 4.14829 9.236V17.318C4.14829 20.023 5.73129 21.703 8.27829 21.703H16.8823C19.3903 21.703 21.0113 19.983 21.0113 17.318V10.28C21.0113 10.0811 21.0903 9.89032 21.231 9.74967C21.3716 9.60902 21.5624 9.53 21.7613 9.53C21.9602 9.53 22.151 9.60902 22.2916 9.74967C22.4323 9.89032 22.5113 10.0811 22.5113 10.28V17.32C22.5113 20.84 20.2493 23.204 16.8813 23.204H8.27929C4.91229 23.204 2.64929 20.839 2.64929 17.319V9.236C2.64929 5.711 4.91229 3.342 8.27929 3.342H15.5473H15.5463ZM17.6613 10.172C17.8185 10.2938 17.921 10.473 17.9461 10.6703C17.9713 10.8675 17.917 11.0667 17.7953 11.224L14.8653 15.004C14.805 15.0822 14.7297 15.1477 14.6439 15.1967C14.558 15.2456 14.4634 15.277 14.3653 15.289C14.267 15.3018 14.1672 15.2948 14.0717 15.2683C13.9762 15.2419 13.887 15.1965 13.8093 15.135L10.9913 12.92L8.46129 16.209C8.34009 16.3668 8.16116 16.47 7.96387 16.4959C7.76658 16.5218 7.5671 16.4682 7.40929 16.347C7.25149 16.2258 7.1483 16.0469 7.12242 15.8496C7.09654 15.6523 7.15009 15.4528 7.27129 15.295L10.2643 11.405C10.3248 11.3264 10.4002 11.2606 10.4863 11.2114C10.5724 11.1622 10.6674 11.1305 10.7658 11.1183C10.8641 11.106 10.964 11.1133 11.0595 11.1399C11.155 11.1665 11.2444 11.2117 11.3223 11.273L14.1423 13.488L16.6093 10.305C16.6692 10.2267 16.7441 10.1611 16.8296 10.1119C16.9151 10.0627 17.0095 10.031 17.1073 10.0185C17.2052 10.0061 17.3045 10.0131 17.3996 10.0393C17.4947 10.0655 17.5836 10.1102 17.6613 10.171V10.172ZM20.6163 2.5C21.3248 2.50053 22.0041 2.78221 22.5051 3.2832C23.0061 3.78418 23.2878 4.4635 23.2883 5.172C23.2878 5.88059 23.0061 6.56002 22.5052 7.06116C22.0042 7.5623 21.3249 7.84421 20.6163 7.845C19.9078 7.84394 19.2286 7.56195 18.7277 7.06087C18.2268 6.55978 17.9451 5.88051 17.9443 5.172C17.9451 4.46359 18.2269 3.78441 18.7278 3.28349C19.2287 2.78256 19.9079 2.50079 20.6163 2.5V2.5ZM20.6163 4C20.3113 4.00891 20.0217 4.13635 19.8091 4.35526C19.5965 4.57418 19.4775 4.86733 19.4775 5.1725C19.4775 5.47767 19.5965 5.77082 19.8091 5.98974C20.0217 6.20865 20.3113 6.33609 20.6163 6.345C20.9213 6.33609 21.2109 6.20865 21.4235 5.98974C21.6361 5.77082 21.755 5.47767 21.755 5.1725C21.755 4.86733 21.6361 4.57418 21.4235 4.35526C21.2109 4.13635 20.9213 4.00891 20.6163 4Z" fill="#ABB7C2"/>
</svg>
