<svg width="24" height="25" viewBox="0 0 24 25" fill="none" xmlns="http://www.w3.org/2000/svg">
<path d="M12 16.25C9.93 16.25 8.25 14.57 8.25 12.5C8.25 10.43 9.93 8.75 12 8.75C14.07 8.75 15.75 10.43 15.75 12.5C15.75 14.57 14.07 16.25 12 16.25ZM12 10.25C10.76 10.25 9.75 11.26 9.75 12.5C9.75 13.74 10.76 14.75 12 14.75C13.24 14.75 14.25 13.74 14.25 12.5C14.25 11.26 13.24 10.25 12 10.25Z" fill="#ABB7C2"/>
<path d="M15.21 22.69C15 22.69 14.79 22.66 14.58 22.61C13.96 22.44 13.44 22.05 13.11 21.5L12.99 21.3C12.4 20.28 11.59 20.28 11 21.3L10.89 21.49C10.56 22.05 10.04 22.45 9.42 22.61C8.79 22.78 8.14 22.69 7.59 22.36L5.87 21.37C5.56778 21.1969 5.30266 20.9658 5.08981 20.6901C4.87695 20.4144 4.72055 20.0994 4.62953 19.7632C4.53851 19.427 4.51466 19.0761 4.55936 18.7307C4.60405 18.3853 4.71641 18.052 4.89 17.75C5.18 17.24 5.26 16.78 5.09 16.49C4.92 16.2 4.49 16.03 3.9 16.03C2.44 16.03 1.25 14.84 1.25 13.38V11.62C1.25 10.16 2.44 8.97004 3.9 8.97004C4.49 8.97004 4.92 8.80004 5.09 8.51004C5.26 8.22004 5.19 7.76004 4.89 7.25004C4.54 6.64004 4.45 5.92004 4.63 5.24004C4.81 4.55004 5.25 3.98004 5.87 3.63004L7.6 2.64004C8.73 1.97004 10.22 2.36004 10.9 3.51004L11.02 3.71004C11.61 4.73004 12.42 4.73004 13.01 3.71004L13.12 3.52004C13.8 2.36004 15.29 1.97004 16.43 2.65004L18.15 3.64004C18.4522 3.81321 18.7173 4.04426 18.9302 4.31997C19.143 4.59569 19.2995 4.91066 19.3905 5.24688C19.4815 5.58309 19.5053 5.93395 19.4606 6.27939C19.4159 6.62483 19.3036 6.95806 19.13 7.26004C18.84 7.77004 18.76 8.23004 18.93 8.52004C19.1 8.81004 19.53 8.98004 20.12 8.98004C21.58 8.98004 22.77 10.17 22.77 11.63V13.39C22.77 14.85 21.58 16.04 20.12 16.04C19.53 16.04 19.1 16.21 18.93 16.5C18.76 16.79 18.83 17.25 19.13 17.76C19.48 18.37 19.58 19.09 19.39 19.77C19.3031 20.1084 19.1483 20.4255 18.9352 20.7023C18.722 20.979 18.4549 21.2096 18.15 21.38L16.42 22.37C16.04 22.58 15.63 22.69 15.21 22.69ZM12 18.99C12.89 18.99 13.72 19.55 14.29 20.54L14.4 20.73C14.52 20.94 14.72 21.09 14.96 21.15C15.2 21.21 15.44 21.18 15.64 21.06L17.37 20.06C17.634 19.9077 17.8273 19.6574 17.9078 19.3635C17.9883 19.0695 17.9496 18.7556 17.8 18.49C17.23 17.51 17.16 16.5 17.6 15.73C18.04 14.96 18.95 14.52 20.09 14.52C20.73 14.52 21.24 14.01 21.24 13.37V11.61C21.24 10.98 20.73 10.46 20.09 10.46C18.95 10.46 18.04 10.02 17.6 9.25004C17.16 8.48004 17.23 7.47004 17.8 6.49004C17.95 6.23004 17.99 5.92004 17.91 5.62004C17.83 5.32004 17.64 5.08004 17.38 4.92004L15.65 3.93004C15.5456 3.86884 15.4302 3.82883 15.3104 3.8123C15.1905 3.79576 15.0686 3.80303 14.9515 3.83368C14.8345 3.86434 14.7247 3.91777 14.6283 3.99093C14.532 4.06409 14.451 4.15554 14.39 4.26004L14.28 4.45004C13.71 5.44004 12.88 6.00004 11.99 6.00004C11.1 6.00004 10.27 5.44004 9.7 4.45004L9.59 4.25004C9.46573 4.04568 9.26661 3.89788 9.03501 3.83811C8.80342 3.77835 8.55764 3.81133 8.35 3.93004L6.62 4.93004C6.35598 5.08234 6.16272 5.33266 6.0822 5.62663C6.00169 5.9206 6.04043 6.23447 6.19 6.50004C6.76 7.48004 6.83 8.49004 6.39 9.26004C5.95 10.03 5.04 10.47 3.9 10.47C3.26 10.47 2.75 10.98 2.75 11.62V13.38C2.75 14.01 3.26 14.53 3.9 14.53C5.04 14.53 5.95 14.97 6.39 15.74C6.83 16.51 6.76 17.52 6.19 18.5C6.04 18.76 6 19.07 6.08 19.37C6.16 19.67 6.35 19.91 6.61 20.07L8.34 21.06C8.55 21.19 8.8 21.22 9.03 21.16C9.27 21.1 9.47 20.94 9.6 20.73L9.71 20.54C10.28 19.56 11.11 18.99 12 18.99Z" fill="#ABB7C2"/>
</svg>
